<?xml version="1.0" standalone="no"?>
<!DOCTYPE svg PUBLIC "-//W3C//DTD SVG 20010904//EN"
 "http://www.w3.org/TR/2001/REC-SVG-20010904/DTD/svg10.dtd">
<svg version="1.0" xmlns="http://www.w3.org/2000/svg"
 width="2865.000000pt" height="2865.000000pt" viewBox="0 0 2865.000000 2865.000000"
 preserveAspectRatio="xMidYMid meet">

<g transform="translate(0.000000,2865.000000) scale(0.100000,-0.100000)"
fill="#000000" stroke="none">
<path d="M20438 28051 c-78 -25 -145 -91 -176 -173 -21 -55 -42 -243 -82 -713
-23 -268 -23 -273 -86 -720 -58 -415 -62 -480 -35 -522 41 -65 114 -88 182
-57 72 32 111 103 367 674 203 454 227 513 262 626 50 163 64 248 64 389 1
191 -31 279 -136 384 -75 75 -163 115 -258 118 -41 1 -87 -2 -102 -6z"/>
<path d="M22530 27229 c-68 -27 -138 -62 -154 -77 -61 -58 -81 -145 -50 -222
l16 -40 -95 -153 c-52 -83 -118 -192 -147 -242 -79 -134 -245 -411 -402 -668
-165 -270 -173 -287 -158 -331 21 -66 81 -97 144 -76 45 15 112 87 389 420
122 146 264 317 317 380 244 292 404 508 455 615 94 200 72 360 -57 426 -61
31 -118 24 -258 -32z"/>
<path d="M16550 26059 c-105 -8 -369 -52 -440 -73 -167 -51 -253 -83 -347
-127 -60 -28 -133 -62 -163 -74 -264 -110 -356 -163 -540 -309 -63 -51 -169
-131 -234 -180 -66 -49 -149 -116 -185 -150 -36 -34 -109 -96 -161 -138 -109
-86 -156 -134 -262 -268 -79 -100 -128 -180 -148 -242 -7 -22 -37 -63 -73
-100 -103 -104 -228 -338 -362 -673 -26 -66 -72 -166 -102 -222 -75 -141 -192
-459 -319 -866 -183 -585 -174 -552 -199 -784 -8 -78 -24 -183 -36 -235 -57
-256 -97 -622 -118 -1088 -12 -279 -8 -945 7 -962 6 -7 10 -42 10 -78 0 -36 5
-123 12 -195 8 -91 10 -285 6 -650 -6 -556 -9 -655 -25 -665 -10 -5 -52 -107
-73 -175 -5 -16 -15 -80 -23 -140 -33 -262 -148 -485 -249 -485 -19 0 -71 -7
-117 -16 -54 -10 -100 -13 -133 -8 -82 12 -88 11 -146 -2 -30 -8 -147 -21
-260 -29 -268 -20 -593 -53 -650 -66 -25 -6 -135 -37 -245 -70 -110 -33 -308
-89 -440 -124 -132 -35 -265 -73 -295 -84 -60 -21 -216 -84 -265 -106 -37 -16
-268 -88 -350 -109 -33 -8 -135 -31 -227 -51 -175 -38 -311 -75 -366 -101 -18
-8 -41 -17 -50 -19 -10 -2 -87 -36 -172 -75 -85 -40 -203 -92 -261 -116 -120
-49 -810 -284 -909 -309 -86 -22 -200 -62 -340 -120 -106 -44 -264 -97 -435
-146 -96 -27 -272 -34 -534 -20 -336 18 -518 49 -688 117 -93 37 -304 88 -513
124 -102 18 -246 49 -320 70 -74 21 -162 44 -195 51 -79 17 -345 18 -460 1
-157 -23 -154 -22 -292 -137 -93 -78 -151 -207 -243 -542 -75 -273 -83 -339
-83 -673 1 -297 7 -374 52 -715 32 -240 48 -295 151 -511 34 -71 88 -194 121
-272 90 -217 161 -336 318 -533 47 -60 104 -138 126 -174 41 -67 117 -159 330
-400 195 -221 212 -242 329 -420 63 -94 173 -242 248 -330 139 -166 207 -254
298 -389 29 -44 90 -125 135 -180 125 -155 172 -232 299 -482 94 -188 121
-251 142 -334 19 -80 54 -164 153 -374 194 -410 202 -431 315 -821 101 -348
196 -639 236 -720 21 -44 112 -194 202 -333 90 -139 235 -365 323 -503 164
-258 222 -333 402 -523 58 -61 130 -144 160 -185 166 -223 299 -364 513 -545
58 -49 191 -175 295 -280 105 -105 240 -232 300 -283 420 -353 455 -377 611
-426 93 -30 246 -52 417 -62 l118 -7 -20 -22 c-11 -11 -24 -34 -30 -49 -14
-36 -14 -135 0 -212 14 -82 24 -631 24 -1350 l0 -600 -28 -109 c-40 -160 -92
-283 -215 -509 -189 -347 -228 -449 -262 -684 -11 -78 -31 -186 -45 -240 -15
-56 -29 -141 -32 -199 -5 -88 -3 -109 17 -169 33 -98 98 -163 195 -193 131
-41 266 -52 367 -31 176 38 384 198 567 438 131 172 182 211 262 199 28 -4 61
-50 89 -126 28 -74 37 -127 49 -297 6 -78 18 -168 26 -200 28 -111 99 -184
203 -210 81 -21 145 -9 263 49 285 141 437 298 557 572 62 141 76 152 176 137
97 -14 157 -43 306 -148 210 -147 345 -205 477 -205 243 0 375 125 423 399 17
95 -2 293 -36 378 -42 106 -297 562 -408 733 -187 285 -493 594 -771 780 -166
111 -340 256 -505 420 -361 360 -520 530 -580 619 -154 231 -217 452 -227 797
l-6 191 44 17 c71 28 189 103 259 163 103 87 159 121 258 153 179 58 221 86
382 249 163 166 264 254 314 275 49 21 116 33 341 62 128 16 263 41 375 69
275 69 263 68 1055 66 l710 -2 145 26 c80 14 208 32 285 40 156 16 527 85 565
105 14 7 39 26 57 42 30 29 33 30 70 18 96 -31 178 -85 273 -181 55 -55 112
-103 135 -113 l41 -18 0 -77 c-1 -42 8 -146 18 -231 25 -204 18 -440 -24 -860
-28 -278 -36 -333 -71 -465 -23 -82 -58 -193 -79 -247 -62 -154 -84 -253 -100
-449 -9 -123 -1 -218 25 -299 18 -55 160 -245 264 -355 42 -45 103 -114 136
-155 77 -96 180 -169 360 -259 157 -79 610 -270 701 -296 32 -10 70 -23 84
-30 14 -8 55 -25 90 -38 152 -58 489 -232 634 -326 165 -108 207 -131 305
-168 73 -28 187 -36 212 -15 8 7 38 31 68 55 84 67 119 150 156 372 9 55 23
123 31 152 16 54 71 135 104 153 10 5 86 10 170 10 165 0 248 13 387 60 103
35 155 65 210 121 84 84 98 161 64 349 -12 63 -24 152 -28 197 l-6 81 29 15
c47 24 153 55 242 71 94 18 127 32 171 77 90 90 94 228 8 326 -70 80 -276 195
-390 219 -38 8 -176 24 -306 34 -130 11 -268 26 -308 33 -57 12 -149 13 -450
9 -390 -5 -586 4 -726 34 -117 24 -251 42 -452 58 -354 30 -411 42 -457 92 -9
11 -40 73 -68 139 -143 332 -148 348 -195 618 -31 184 -38 355 -28 691 l8 260
89 17 c180 36 335 145 453 319 45 67 226 433 257 520 15 41 87 194 160 340 74
146 152 306 174 355 21 50 57 119 80 155 23 36 62 103 88 150 26 47 89 159
140 249 51 90 112 211 135 269 40 103 130 448 184 702 35 167 61 268 95 370
16 47 36 117 45 155 9 39 38 149 65 245 65 232 123 455 159 615 17 72 35 148
41 170 7 23 16 211 21 440 12 451 9 480 -57 681 -26 81 -39 144 -49 245 -27
258 -40 316 -157 684 -38 121 -87 285 -109 364 -42 150 -165 488 -229 626 -50
108 -104 195 -213 340 -51 68 -109 151 -130 186 -21 35 -81 137 -134 226 -93
158 -142 227 -312 435 -47 57 -114 148 -149 203 -36 55 -98 150 -139 212 -81
123 -355 468 -522 658 -123 140 -292 365 -357 475 -34 56 -51 76 -63 73 -12
-3 -22 7 -35 34 -37 78 -87 229 -127 386 -23 89 -60 214 -84 277 -67 184 -106
350 -174 750 -41 236 -54 386 -46 516 3 60 7 139 8 177 1 37 3 67 5 67 2 0 47
-42 100 -92 102 -97 437 -376 647 -538 324 -250 472 -360 570 -426 313 -212
439 -269 740 -337 96 -22 121 -24 200 -17 100 9 188 31 214 53 9 8 36 25 61
37 25 13 71 40 103 62 61 41 188 103 296 144 35 13 103 44 150 68 148 75 473
223 536 245 118 40 354 140 446 189 52 28 148 74 214 102 127 54 283 135 350
181 23 15 108 61 190 103 83 41 206 107 275 147 68 39 136 75 151 79 14 4 72
38 128 74 121 78 333 201 482 279 59 30 147 81 195 113 192 125 774 454 969
549 142 69 295 172 403 270 37 33 304 204 367 234 22 11 69 33 105 49 36 16
85 46 110 67 46 39 192 113 363 185 156 65 333 165 401 226 33 30 85 71 114
90 68 46 87 66 122 136 25 50 33 90 45 203 1 6 -5 35 -12 65 -7 30 -12 65 -13
78 0 42 -41 110 -86 144 -37 28 -43 38 -44 68 0 47 -30 87 -110 151 -72 57
-99 70 -127 63 -13 -4 -23 2 -30 19 -7 14 -22 28 -34 32 -25 8 -112 75 -176
135 -44 42 -76 50 -115 29 -15 -8 -22 -8 -27 0 -4 6 -35 30 -68 54 -33 23 -72
56 -86 72 -25 31 -111 78 -206 114 -59 23 -87 26 -96 11 -3 -5 -22 -10 -41
-10 -30 0 -34 3 -30 18 10 30 -34 84 -104 129 -36 22 -79 55 -95 72 -32 32
-108 56 -148 46 -18 -5 -25 2 -42 37 -21 48 -156 187 -203 212 -21 11 -53 15
-105 13 -42 -1 -78 1 -81 4 -8 7 -8 58 0 96 6 32 6 33 -57 90 -5 4 -19 21 -30
36 -12 16 -64 49 -122 79 -91 45 -106 50 -151 45 -28 -2 -59 -8 -68 -12 -14
-5 -18 -2 -18 13 0 26 -40 58 -101 79 -39 14 -50 23 -55 46 -7 31 -43 60 -71
55 -24 -4 -113 49 -113 67 0 8 -9 24 -20 35 -39 39 -169 21 -328 -47 -84 -36
-87 -40 -94 -102 -3 -22 -12 -27 -73 -42 -96 -23 -231 -76 -280 -108 -29 -19
-64 -31 -121 -39 -105 -14 -179 -48 -227 -102 -32 -34 -38 -48 -35 -75 l4 -33
-43 29 c-57 39 -91 45 -155 24 -126 -42 -203 -97 -222 -162 -4 -11 -13 -24
-21 -27 -8 -3 -15 -12 -15 -21 0 -18 -12 -19 -27 -4 -21 21 -89 11 -151 -20
-34 -17 -82 -35 -109 -41 -26 -6 -56 -18 -65 -27 -17 -15 -27 -7 -150 113
-240 233 -446 404 -590 487 -74 43 -150 136 -210 256 -29 58 -77 150 -106 203
-29 53 -68 143 -86 200 -34 106 -59 161 -99 221 -43 63 -114 141 -160 176 -38
28 -52 49 -86 128 -30 68 -44 117 -50 177 -14 118 -33 186 -97 338 -75 179
-136 295 -194 370 -27 35 -66 89 -87 122 -142 219 -181 273 -241 332 -123 122
-237 199 -437 295 -138 66 -182 80 -230 72 -20 -3 -71 5 -132 21 -311 82 -611
115 -873 95z m611 -253 c223 -45 296 -68 345 -107 68 -54 91 -62 159 -55 l61
6 94 -62 c162 -107 289 -244 405 -438 22 -36 65 -96 96 -133 120 -142 253
-467 272 -663 l6 -62 -91 -32 c-145 -50 -244 -98 -444 -216 -194 -114 -287
-186 -329 -258 -13 -23 -49 -105 -79 -183 -62 -160 -103 -248 -140 -295 -13
-18 -54 -87 -90 -153 -42 -75 -82 -135 -109 -159 -23 -21 -127 -95 -231 -163
-104 -69 -209 -145 -233 -170 -67 -67 -77 -97 -75 -239 2 -207 29 -312 103
-405 17 -22 30 -41 28 -43 -2 -1 -20 -12 -40 -24 -20 -12 -56 -43 -79 -68 -27
-30 -57 -50 -82 -58 -46 -13 -78 -59 -78 -110 0 -18 -19 -59 -50 -106 -91
-142 -217 -356 -278 -471 -62 -116 -104 -243 -137 -408 -15 -74 -58 -203 -94
-281 -9 -18 -20 -25 -44 -26 -20 -1 -36 -9 -45 -23 -9 -12 -25 -21 -41 -21
-33 -1 -92 -29 -161 -80 -30 -22 -72 -46 -93 -52 -21 -6 -48 -22 -60 -34 -16
-17 -29 -21 -53 -17 -24 4 -43 -3 -85 -30 -83 -55 -118 -87 -140 -126 -10 -20
-29 -48 -41 -63 -20 -26 -21 -30 -9 -130 10 -74 10 -118 3 -158 -6 -30 -9
-111 -9 -180 2 -100 6 -133 21 -163 20 -41 159 -167 216 -197 58 -30 197 -144
337 -276 l133 -125 -23 -30 c-21 -29 -22 -41 -25 -262 -4 -258 6 -392 44 -625
67 -413 112 -610 182 -808 22 -60 58 -182 81 -272 54 -211 120 -403 181 -522
125 -248 144 -279 236 -390 92 -111 122 -154 177 -251 37 -65 372 -518 614
-829 53 -69 154 -209 224 -312 71 -103 177 -255 238 -336 60 -82 130 -182 157
-223 26 -41 84 -130 130 -199 46 -69 97 -159 113 -200 213 -537 224 -572 271
-895 48 -321 58 -360 220 -863 38 -117 76 -246 84 -286 17 -81 31 -373 31
-631 -1 -177 -1 -181 -69 -480 -14 -60 -32 -165 -40 -232 -14 -112 -82 -400
-151 -638 -15 -49 -50 -185 -80 -300 l-53 -211 -134 -269 c-75 -149 -152 -313
-173 -365 -21 -52 -48 -115 -60 -140 -12 -25 -41 -106 -65 -180 -45 -143 -156
-451 -192 -535 -29 -66 -148 -281 -207 -375 -56 -87 -75 -127 -177 -367 l-76
-178 -106 -104 c-105 -101 -110 -104 -257 -173 -214 -99 -300 -129 -331 -118
-40 16 -81 12 -126 -11 -36 -19 -52 -20 -122 -15 -137 11 -180 30 -255 109
-188 197 -452 296 -753 285 -148 -6 -179 -18 -197 -77 -6 -22 -19 -42 -30 -46
-9 -3 -85 -12 -168 -20 -83 -8 -213 -25 -289 -39 -192 -34 -266 -39 -604 -35
-809 8 -933 1 -1360 -72 -96 -17 -250 -41 -343 -54 -213 -31 -325 -58 -401
-96 -54 -28 -86 -51 -200 -151 -26 -23 -40 -28 -86 -28 -70 0 -99 -18 -175
-106 -102 -118 -120 -130 -255 -169 -100 -29 -191 -89 -324 -213 -128 -120
-292 -229 -469 -312 l-83 -39 -270 -3 c-148 -1 -312 -2 -364 -1 -168 3 -339
64 -450 160 -61 52 -94 79 -215 175 -105 83 -263 236 -387 375 -55 62 -156
164 -226 226 -165 149 -234 220 -443 462 -95 110 -209 238 -254 285 -171 178
-225 246 -315 400 -41 69 -144 235 -230 370 -195 306 -290 461 -328 536 -32
63 -155 443 -247 764 -31 107 -63 215 -72 240 -20 56 -161 381 -243 560 -103
225 -120 270 -150 400 -48 213 -85 305 -211 528 -85 149 -142 235 -223 337
-40 50 -97 124 -127 165 -31 41 -140 176 -243 300 -104 124 -214 263 -245 310
-96 144 -262 368 -346 467 -44 53 -109 134 -143 182 -35 47 -92 125 -127 172
-35 47 -114 139 -175 204 -108 115 -112 121 -195 289 -174 355 -419 1020 -476
1296 -24 114 -32 181 -36 312 -8 233 11 369 98 711 49 193 71 252 112 295 28
29 36 32 90 32 53 0 62 3 91 33 18 17 35 39 38 46 12 39 244 28 408 -18 58
-17 186 -46 285 -66 235 -47 297 -63 495 -130 211 -72 522 -152 640 -165 50
-6 119 -8 153 -5 34 3 181 7 327 9 289 3 363 13 513 66 45 16 145 45 222 65
77 20 201 56 275 80 74 24 171 53 215 65 104 27 722 237 850 288 55 22 186 78
290 124 237 106 324 134 603 198 273 63 400 101 650 196 135 52 239 84 350
108 86 19 252 56 367 81 116 25 269 62 340 80 72 19 173 39 225 45 52 7 230
34 395 62 165 28 336 54 380 58 44 4 94 13 110 19 60 25 163 43 280 51 144 9
208 31 281 94 28 25 73 76 99 114 39 57 47 77 47 115 0 50 -21 98 -53 120
l-20 15 25 83 c14 46 30 131 36 188 6 68 22 138 44 205 18 55 39 127 45 158
18 85 29 369 23 573 -3 99 -4 239 -2 310 6 233 5 307 -9 555 -14 251 -11 510
8 695 6 55 20 208 31 340 11 132 22 263 25 290 12 118 15 143 20 205 19 208
41 359 81 555 49 239 108 540 144 730 57 308 231 884 345 1143 18 42 54 132
79 200 56 150 114 278 202 442 84 159 97 176 133 183 37 8 79 67 87 123 12 81
54 168 124 259 92 118 135 162 250 253 52 42 120 100 150 128 63 60 144 124
523 417 64 49 192 115 382 197 61 26 142 63 180 82 134 67 319 120 540 154
131 20 178 23 365 20 199 -4 228 -7 391 -40z m1609 -1838 c30 -21 60 -38 67
-38 15 0 99 -94 128 -144 13 -23 35 -77 49 -121 30 -90 239 -510 296 -595 45
-67 137 -155 203 -195 174 -107 515 -406 727 -639 162 -178 220 -296 221 -448
1 -66 -3 -85 -27 -128 -29 -54 -32 -55 -156 -80 -41 -8 -73 -8 -113 -1 -39 7
-80 7 -136 0 -88 -12 -106 -8 -234 51 -59 28 -141 52 -220 64 -61 10 -253 75
-320 109 -33 16 -107 67 -164 113 -86 69 -149 107 -357 215 -293 151 -369 183
-577 244 -267 78 -309 99 -430 207 -54 48 -114 91 -151 109 -65 30 -184 54
-220 43 -11 -3 2 10 29 30 96 69 160 143 220 254 32 59 75 130 96 158 43 59
111 191 146 284 32 86 87 189 117 221 26 28 294 213 381 264 28 16 113 55 189
86 l140 56 20 -41 c13 -25 41 -54 76 -78z m3507 -855 l35 -27 -52 -18 c-51
-17 -52 -17 -107 8 -31 13 -53 27 -50 31 8 8 96 31 120 32 10 1 34 -11 54 -26z
m-72 -225 c4 -16 5 -32 2 -35 -3 -3 -40 14 -81 38 -59 33 -76 48 -76 65 l0 23
74 -31 c65 -26 76 -34 81 -60z m235 48 c0 -41 -3 -45 -47 -75 l-48 -31 -11 58
c-5 31 -8 60 -4 64 5 7 70 25 98 27 8 1 12 -14 12 -43z m-540 -26 c0 -49 68
-108 201 -174 63 -32 116 -60 118 -62 8 -7 -32 -44 -48 -44 -36 0 -61 -30 -61
-72 0 -35 -2 -39 -15 -28 -15 12 -60 10 -111 -5 -17 -5 -23 -1 -28 19 -9 35
-54 56 -119 56 -58 0 -67 7 -67 56 0 38 -17 64 -83 124 l-60 56 24 15 c45 29
193 84 237 88 7 1 12 -11 12 -29z m1060 -148 c0 -10 -33 -29 -91 -52 l-50 -20
-49 46 c-28 26 -50 49 -50 53 0 3 19 18 41 32 l42 27 78 -39 c44 -22 79 -42
79 -47z m-1458 -22 l71 -50 -44 -18 -44 -19 -63 48 c-34 27 -63 52 -65 56 -1
6 45 27 71 32 1 1 35 -21 74 -49z m1009 -8 l-6 -54 -27 22 c-36 28 -35 43 4
68 18 12 33 20 34 19 0 -1 -2 -26 -5 -55z m197 -120 c39 -32 42 -38 41 -81 -1
-47 -3 -47 -13 1 -4 20 -18 32 -54 48 -44 20 -48 25 -44 51 5 32 7 32 70 -19z
m-1569 -32 l55 -39 -28 -10 c-15 -6 -43 -22 -63 -35 -34 -24 -38 -24 -67 -9
-41 21 -96 62 -96 72 0 12 96 52 140 60 3 0 29 -17 59 -39z m1885 24 c4 -9 5
-18 4 -19 -2 -1 -36 -21 -75 -43 l-73 -41 0 29 c0 27 7 33 63 59 75 35 73 35
81 15z m-535 -60 l61 -37 -51 -23 -50 -24 -60 41 c-58 39 -60 41 -43 60 27 30
75 24 143 -17z m-833 -15 c14 -23 22 -45 17 -49 -4 -4 -34 -19 -65 -33 l-57
-25 -10 30 c-20 57 -14 74 32 97 23 12 45 21 49 21 4 0 19 -19 34 -41z m1547
-41 c12 -6 30 -12 40 -13 18 -2 75 -51 66 -58 -2 -2 -62 -32 -132 -66 l-129
-62 -54 41 c-30 22 -54 44 -54 48 0 13 181 106 238 121 2 1 13 -4 25 -11z
m-463 -50 c-1 -26 -3 -30 -10 -16 -6 9 -7 23 -4 32 9 25 14 19 14 -16z m-1779
-75 c19 -21 24 -33 18 -48 -4 -11 -8 -15 -8 -8 -1 15 -70 86 -99 102 -12 6
-22 21 -22 32 0 18 5 16 43 -15 23 -19 54 -48 68 -63z m1340 44 c69 -44 89
-67 99 -114 8 -31 6 -41 -9 -57 -19 -18 -19 -17 -31 40 -15 76 -28 95 -90 135
-48 31 -64 46 -37 36 8 -3 38 -21 68 -40z m-1612 -16 l44 -39 -34 -7 c-68 -15
-109 -37 -130 -71 -12 -20 -18 -42 -14 -51 3 -10 4 -15 2 -13 -2 3 -30 35 -61
72 l-56 68 27 5 c39 9 152 56 159 66 8 14 16 10 63 -30z m1397 -12 c19 -11 34
-24 34 -29 0 -5 -16 -18 -36 -30 -34 -22 -37 -22 -78 -6 -23 9 -51 22 -61 30
-16 11 -14 15 26 34 55 27 73 27 115 1z m-796 -18 c15 -29 13 -37 -17 -50 -48
-22 -165 -63 -168 -59 -11 11 10 47 31 52 13 4 38 19 56 35 52 45 82 52 98 22z
m1320 10 c0 -5 2 -16 6 -24 3 -10 -5 -16 -28 -20 -18 -3 -41 -8 -50 -12 -36
-14 -18 24 20 44 42 23 52 25 52 12z m-870 -17 c0 -8 -5 -12 -10 -9 -6 4 -8
11 -5 16 9 14 15 11 15 -7z m171 -134 l76 -39 -2 -84 c-2 -53 -9 -95 -19 -113
l-15 -29 -1 37 c0 20 -5 61 -11 90 -10 44 -21 62 -73 114 -33 34 -70 72 -81
85 l-20 23 35 -22 c19 -13 69 -40 111 -62z m1469 63 c0 -5 -39 -28 -86 -52
-56 -28 -93 -54 -106 -75 -11 -17 -31 -39 -44 -49 -23 -17 -24 -17 -24 1 0 10
5 34 11 51 10 28 26 40 113 82 96 46 136 58 136 42z m-398 -117 c5 -32 2 -184
-3 -178 -4 4 -19 45 -35 92 -24 76 -53 121 -83 131 -5 2 -7 16 -4 31 l5 26 59
-45 c32 -26 60 -51 61 -57z m-768 12 c4 -20 3 -28 -6 -28 -8 0 -30 -11 -50
-25 -20 -14 -39 -25 -42 -25 -3 0 -2 17 1 38 4 26 16 46 42 69 39 34 39 33 55
-29z m-1351 -9 l5 -37 -77 -36 c-81 -38 -96 -43 -86 -25 4 5 9 25 12 42 3 18
8 33 13 35 4 2 32 20 62 41 57 40 62 39 71 -20z m851 -14 l28 -12 -55 -32
c-30 -17 -58 -31 -62 -31 -11 0 -125 74 -125 81 0 6 81 44 110 52 8 2 29 -7
45 -21 17 -14 43 -30 59 -37z m1942 38 c24 -16 42 -32 41 -38 -2 -5 -38 -24
-80 -41 -41 -17 -117 -55 -168 -83 -84 -46 -96 -51 -120 -40 -43 17 -63 44
-50 67 10 20 156 95 208 108 15 4 48 18 73 30 25 13 47 24 49 24 2 0 23 -12
47 -27z m-979 -29 l78 -36 -35 -18 c-46 -25 -49 -25 -130 12 l-69 32 37 22
c20 12 38 23 39 23 1 1 37 -15 80 -35z m-1420 -21 c-3 -3 -11 -2 -17 2 -9 6
-9 10 1 16 14 8 27 -7 16 -18z m243 -139 c68 -47 80 -60 80 -84 0 -16 2 -34 5
-42 2 -7 -11 -23 -30 -35 l-35 -22 0 35 c0 45 -12 68 -67 123 -36 38 -57 81
-38 81 3 0 41 -25 85 -56z m2300 7 c0 -5 -292 -151 -334 -167 -12 -5 -16 0
-16 19 0 21 13 32 86 71 47 26 111 56 142 68 31 11 66 27 77 35 17 12 22 11
32 -4 7 -9 13 -19 13 -22z m-1978 -22 c4 -40 3 -41 -25 -35 -16 3 -38 6 -48 6
-31 0 -22 25 19 48 20 12 40 22 43 22 4 0 9 -18 11 -41z m-587 1 l44 -30 -47
-48 -47 -49 -40 25 c-22 14 -55 36 -73 50 -28 22 -31 27 -19 39 17 18 84 42
115 43 13 0 43 -13 67 -30z m1326 4 c36 -18 49 -30 45 -40 -3 -9 -6 -25 -6
-37 0 -21 -1 -21 -13 3 -7 14 -22 29 -33 34 -18 8 -61 66 -48 66 2 0 27 -12
55 -26z m-255 -16 c24 -18 44 -36 44 -40 0 -7 -88 -58 -100 -58 -4 0 -34 12
-66 27 l-58 26 43 39 c54 47 81 48 137 6z m-1472 -25 c-9 -38 -11 -39 -34 -18
l-21 19 28 12 c15 7 29 13 31 13 1 1 -1 -11 -4 -26z m3297 6 c17 -9 -1 -18
-121 -59 -77 -27 -164 -62 -193 -78 -29 -16 -107 -55 -175 -87 -109 -51 -127
-56 -155 -48 -31 10 -29 12 118 83 192 93 312 145 380 165 30 8 57 20 60 25 8
13 61 13 86 -1z m-848 -89 c32 -17 37 -25 37 -54 0 -25 -7 -40 -26 -55 -31
-24 -44 -20 -44 14 0 38 -21 75 -46 81 -13 4 -21 12 -18 20 15 50 12 48 37 30
12 -9 39 -25 60 -36z m-661 -72 l-17 -43 -6 30 c-4 17 -7 48 -8 69 l-1 39 24
-26 c24 -26 24 -27 8 -69z m338 34 l57 -38 -38 -22 c-49 -28 -52 -28 -106 10
l-47 31 34 29 c19 15 36 28 38 28 3 0 30 -17 62 -38z m-1904 -34 l63 -43 1
-70 c0 -39 -4 -75 -9 -80 -5 -6 -11 -19 -14 -30 -3 -11 -5 12 -6 52 0 39 -4
78 -7 87 -3 8 -30 33 -60 56 -35 27 -51 45 -48 55 8 21 9 20 80 -27z m-272
-28 l58 -44 -28 -24 c-98 -79 -108 -75 -111 46 -3 93 -9 92 81 22z m1402 -73
c7 -42 15 -81 19 -87 4 -6 4 -17 1 -25 -4 -12 -13 -10 -43 11 -38 26 -49 49
-60 126 -3 26 -15 46 -35 63 -46 39 -24 47 44 15 l63 -28 11 -75z m274 86 l0
-48 -67 -28 c-67 -27 -82 -26 -83 10 0 9 135 113 147 113 2 0 3 -21 3 -47z
m1837 25 c13 -13 9 -17 -32 -28 -25 -7 -48 -17 -51 -21 -3 -5 -18 -9 -33 -9
-30 0 -90 -35 -101 -60 -4 -8 -12 -25 -18 -37 -17 -33 -15 -57 8 -86 40 -50
21 -61 -38 -22 -48 31 -93 41 -123 25 -13 -7 -49 -34 -79 -60 -51 -44 -159
-115 -165 -108 -8 11 -56 171 -52 174 1 1 76 39 166 84 288 144 470 196 518
148z m-2419 -40 c49 -34 52 -43 16 -52 -14 -4 -43 -18 -65 -31 l-39 -25 -50
36 c-47 33 -62 54 -41 54 5 0 28 16 51 35 46 39 46 39 128 -17z m-518 8 c0 -9
-8 -12 -26 -8 -19 3 -22 7 -12 13 20 13 38 11 38 -5z m-3695 -25 c301 -14 558
-59 720 -126 44 -18 95 -36 113 -40 40 -8 41 -19 2 -35 -35 -15 -70 -55 -70
-80 0 -15 -11 -19 -57 -23 -128 -12 -184 -26 -275 -69 -51 -25 -104 -57 -117
-71 -13 -15 -40 -30 -60 -33 -20 -4 -74 -24 -121 -44 -65 -28 -90 -45 -108
-72 -14 -21 -43 -44 -72 -58 -46 -21 -50 -22 -81 -6 -52 26 -82 20 -135 -25
-53 -44 -103 -72 -146 -83 -15 -3 -43 -21 -62 -40 -44 -41 -47 -77 -11 -126
14 -19 25 -35 25 -37 0 -2 -16 7 -35 19 -26 17 -35 30 -35 51 0 17 -10 38 -26
54 -22 22 -31 25 -70 19 -43 -6 -152 -62 -220 -113 -17 -13 -59 -33 -92 -44
-65 -22 -122 -73 -122 -109 0 -26 -4 -25 -47 7 -33 25 -37 26 -78 15 -24 -6
-69 -28 -100 -47 -30 -20 -55 -33 -55 -31 0 3 13 20 29 38 37 43 84 152 110
256 11 45 40 124 65 175 47 97 223 376 303 480 27 33 53 67 58 74 9 12 17 11
47 -1 20 -9 45 -13 55 -10 66 21 93 56 93 120 l0 37 183 -6 c100 -4 277 -11
392 -16z m5106 -61 l24 -19 -29 8 c-16 4 -31 12 -34 19 -6 18 13 14 39 -8z
m1779 -6 c22 -15 40 -28 40 -30 0 -5 -192 -94 -204 -94 -6 0 -44 14 -84 32
l-72 32 31 13 c17 7 42 13 55 13 14 0 37 8 51 18 31 20 88 39 121 41 12 1 40
-11 62 -25z m-1426 1 c4 -10 -6 -20 -32 -30 -20 -9 -47 -25 -59 -37 -20 -19
-23 -19 -29 -4 -4 9 -4 19 -2 21 4 4 111 64 114 65 1 0 4 -7 8 -15z m-284 -57
c0 -12 -6 -9 -26 13 -19 22 -19 22 4 8 12 -8 22 -17 22 -21z m-1406 -49 c39
-23 73 -43 75 -45 6 -5 -41 -41 -85 -65 l-41 -22 -68 41 -69 41 46 45 c25 26
51 46 59 46 7 0 45 -19 83 -41z m1150 33 c3 -5 -8 -19 -24 -31 -28 -20 -31
-21 -67 -6 l-38 16 25 14 c28 16 96 20 104 7z m-1669 -71 c-22 -7 -46 -18 -53
-23 -7 -6 -15 -8 -19 -4 -3 3 -2 6 3 6 6 0 30 19 54 42 44 43 44 43 50 18 5
-22 1 -27 -35 -39z m1029 -1 c-32 -33 -60 -60 -61 -60 -2 0 -3 10 -3 23 0 16
16 32 58 59 31 21 59 38 61 38 2 0 -22 -27 -55 -60z m-236 21 c22 -22 34 -50
49 -113 11 -46 24 -92 29 -103 8 -20 8 -20 -20 -2 -15 10 -41 19 -58 19 -26 1
-29 4 -25 25 2 13 0 42 -4 66 -13 65 -18 137 -9 137 5 0 22 -13 38 -29z m1162
-20 c19 -39 19 -40 2 -53 -11 -7 -21 -20 -25 -28 -3 -8 -6 15 -6 53 -1 37 1
67 4 67 2 0 14 -18 25 -39z m569 23 c36 -14 40 -20 65 -98 14 -45 26 -89 26
-98 0 -9 10 -25 23 -35 34 -26 25 -44 -15 -29 -23 8 -36 24 -54 65 -13 29 -24
67 -24 83 0 31 -38 78 -64 78 -19 0 -28 14 -20 34 8 20 14 20 63 0z m-2329
-82 c0 -9 -6 -8 -24 3 -21 14 -22 19 -12 40 l11 25 12 -27 c7 -16 12 -34 13
-41z m3706 44 c18 -18 18 -26 0 -26 -7 0 -16 9 -19 20 -6 24 -1 25 19 6z
m-2104 -47 c5 -45 4 -47 -27 -56 -30 -10 -34 -8 -45 16 -11 24 -9 28 26 58 21
17 39 31 40 30 1 -1 4 -23 6 -48z m506 12 l53 -38 -48 -42 c-26 -22 -52 -41
-56 -41 -12 0 -117 71 -117 79 0 10 62 67 80 74 27 10 34 7 88 -32z m1446 17
c16 -62 9 -77 -49 -103 -31 -13 -69 -34 -86 -45 -31 -23 -31 -22 -43 32 -3 14
-9 33 -12 42 -5 13 13 25 77 56 46 21 89 39 95 39 7 1 14 -9 18 -21z m-3974
-84 c12 -84 12 -83 4 -115 -3 -17 0 -40 10 -62 22 -45 184 -176 187 -150 0 4
7 -14 14 -41 12 -42 12 -52 -1 -70 -8 -11 -14 -35 -14 -53 0 -31 -1 -32 -26
-21 -24 11 -26 16 -20 58 4 31 2 52 -7 65 -8 11 -17 32 -21 47 -4 17 -24 39
-54 59 -26 18 -64 46 -85 62 l-38 30 21 22 c19 20 20 29 14 108 -5 65 -11 91
-25 103 -15 13 -16 21 -8 36 18 33 38 1 49 -78z m1812 -31 l18 -48 -22 -15
c-12 -8 -37 -27 -54 -43 l-32 -27 -5 22 c-3 13 -9 49 -13 82 -5 46 -12 63 -35
84 -16 14 -29 36 -29 48 0 23 2 22 77 -16 71 -37 78 -43 95 -87z m-3663 81
c34 -15 61 -29 61 -33 0 -3 -25 -14 -54 -23 -30 -10 -82 -35 -116 -57 l-62
-40 -49 32 c-27 18 -49 35 -49 38 0 11 73 55 115 70 22 7 49 19 60 26 26 17
24 17 94 -13z m5441 -28 c0 -26 25 -52 54 -57 14 -3 23 -18 32 -59 23 -96 25
-92 -88 -158 -99 -57 -188 -102 -205 -102 -4 0 -19 -9 -33 -20 -14 -11 -28
-20 -31 -20 -5 0 -31 127 -34 161 -1 15 101 82 161 106 115 46 155 102 104
148 -32 29 -26 46 10 34 21 -8 30 -17 30 -33z m657 -17 c29 -29 -55 -132 -142
-176 -27 -14 -79 -44 -115 -68 -65 -42 -144 -88 -440 -255 -85 -47 -195 -112
-243 -144 -49 -31 -125 -75 -170 -97 -150 -76 -347 -188 -450 -258 -57 -38
-146 -90 -198 -116 -52 -26 -141 -77 -199 -114 -58 -36 -148 -89 -200 -117
-230 -123 -351 -200 -358 -226 -5 -22 -37 -38 -247 -133 -82 -37 -195 -87
-250 -112 -136 -62 -350 -177 -481 -261 -60 -38 -161 -97 -224 -132 -222 -121
-346 -193 -470 -273 -168 -108 -237 -147 -350 -195 -113 -49 -448 -218 -511
-258 -24 -15 -105 -60 -179 -100 -74 -39 -230 -123 -345 -185 -116 -63 -269
-141 -340 -173 -72 -33 -195 -93 -274 -133 -79 -40 -154 -73 -168 -73 -30 0
-63 -17 -63 -33 0 -7 -42 -33 -93 -60 -69 -35 -102 -47 -130 -45 -28 1 -42 -3
-48 -15 -14 -25 -78 -22 -148 7 -43 17 -77 42 -127 94 -44 44 -62 69 -50 66
11 -2 31 -14 45 -27 60 -54 109 -79 143 -74 72 11 154 37 248 79 36 17 109 47
162 69 53 21 179 78 280 128 101 49 221 106 268 128 47 22 100 54 119 72 19
18 48 39 65 48 43 22 372 220 421 253 50 33 96 58 312 165 95 46 214 108 265
137 51 28 147 79 213 112 93 47 123 68 135 91 14 28 18 30 44 20 25 -8 44 -1
172 64 79 40 201 107 271 149 135 79 253 144 497 274 81 43 180 98 220 121 39
24 91 51 116 62 67 28 226 112 300 158 63 39 373 197 386 197 4 0 34 17 68 39
34 21 133 75 221 120 198 102 485 274 535 321 20 20 90 64 156 99 270 144 382
207 446 247 37 24 100 58 140 77 78 36 247 131 313 177 22 15 58 36 80 48 22
11 51 31 65 44 14 14 71 48 127 77 114 58 153 86 153 107 0 17 12 18 27 3z
m-2735 -35 c21 -15 35 -30 32 -35 -2 -4 -29 -16 -59 -25 l-54 -17 -40 27 -40
28 27 24 c37 32 86 31 134 -2z m1828 6 c8 -5 10 -10 5 -10 -12 0 -139 -82
-166 -106 -14 -13 -18 -13 -28 0 -6 8 -23 17 -37 20 -23 6 -21 9 38 56 58 45
68 49 118 49 30 0 62 -4 70 -9z m-2988 -40 c43 -29 46 -36 18 -45 -11 -3 -43
-24 -72 -46 -29 -21 -58 -39 -64 -39 -15 0 -77 42 -81 56 -4 12 60 59 117 86
41 19 35 20 82 -12z m306 -63 c3 -11 14 -38 26 -61 l21 -41 -24 -23 c-18 -18
-22 -30 -17 -53 3 -16 2 -29 -2 -29 -5 0 -19 44 -32 98 -24 100 -25 104 -53
160 l-16 33 46 -32 c25 -18 48 -41 51 -52z m177 11 c-27 -15 -30 -15 -34 -1
-1 9 10 28 25 43 l29 27 5 -26 c5 -21 0 -29 -25 -43z m-995 27 c0 -25 -5 -35
-15 -35 -8 0 -37 -15 -63 -34 l-48 -33 -3 40 c-1 23 -4 44 -7 46 -4 4 106 47
129 50 4 1 7 -15 7 -34z m-1338 -6 c48 -18 85 -36 82 -40 -3 -5 -27 -20 -54
-34 l-48 -24 -20 32 c-11 17 -30 47 -42 65 -12 17 -18 32 -14 32 5 0 48 -14
96 -31z m-582 -159 c1 -19 5 -54 9 -77 5 -24 7 -43 5 -43 -1 0 -19 27 -40 60
-20 33 -41 60 -45 60 -5 0 -15 13 -23 29 -8 15 -42 50 -75 77 -48 38 -57 50
-44 55 12 4 52 -17 115 -60 92 -62 98 -68 98 -101z m4768 116 c-2 -2 -38 -21
-80 -43 -62 -32 -78 -37 -83 -25 -7 18 -10 15 40 40 22 11 53 34 70 51 l29 31
14 -26 c7 -14 12 -27 10 -28z m-303 -78 c14 -44 24 -83 21 -85 -8 -8 -23 31
-31 77 -5 32 -17 54 -41 77 -42 39 -45 62 -4 33 23 -16 35 -40 55 -102z
m-4092 70 c9 -18 18 -45 22 -60 9 -36 41 -68 76 -75 24 -5 29 -10 29 -35 l0
-29 -44 31 c-56 38 -79 38 -147 0 -30 -16 -59 -30 -65 -30 -6 0 -14 22 -17 49
-3 28 -13 63 -21 80 -15 29 -15 30 14 51 31 22 95 48 121 49 9 1 24 -14 32
-31z m1287 -5 c1 -16 7 -45 14 -65 12 -34 12 -39 -5 -54 -18 -16 -19 -16 -20
2 -1 10 0 33 1 51 1 17 -4 41 -10 53 -11 21 -6 40 11 40 5 0 9 -12 9 -27z
m1761 -50 c46 -30 57 -81 26 -120 -22 -28 -28 -25 -42 24 -6 22 -21 40 -40 51
-40 23 -42 26 -37 67 l4 36 27 -17 c14 -10 42 -28 62 -41z m780 30 c27 -16 49
-30 49 -33 0 -3 -32 -22 -71 -43 l-71 -38 -36 23 c-21 13 -49 30 -64 37 -16 8
-28 17 -28 21 0 13 107 59 139 59 19 1 54 -11 82 -26z m-4502 -34 c29 -23 49
-45 44 -49 -13 -13 -150 -70 -167 -70 -12 0 -119 71 -113 76 45 32 146 84 163
84 12 0 45 -19 73 -41z m6710 -93 c1 -48 -3 -63 -24 -88 -43 -51 -27 -102 36
-115 28 -5 28 -6 13 -33 -9 -14 -33 -38 -54 -51 -21 -13 -74 -56 -117 -95 -90
-80 -237 -164 -423 -239 -166 -68 -265 -120 -345 -180 -38 -29 -107 -68 -151
-88 -45 -19 -115 -56 -155 -82 -41 -27 -103 -66 -139 -88 -36 -22 -121 -83
-190 -137 -171 -133 -220 -163 -341 -214 -57 -23 -126 -56 -154 -73 -27 -16
-88 -49 -135 -73 -97 -50 -477 -276 -655 -390 -66 -42 -156 -96 -200 -120
-117 -64 -396 -224 -473 -272 -37 -23 -93 -55 -126 -70 -32 -16 -101 -54 -154
-85 -53 -30 -171 -93 -263 -139 -93 -46 -192 -99 -221 -117 -76 -49 -222 -121
-340 -168 -57 -22 -155 -68 -218 -101 -63 -34 -151 -73 -195 -89 -246 -85
-586 -238 -743 -334 -51 -31 -128 -70 -170 -85 -153 -57 -263 -109 -339 -164
-68 -48 -121 -73 -197 -92 -50 -13 -69 -14 -80 -5 -27 23 -53 19 -90 -11 l-37
-30 -92 22 c-191 46 -354 106 -431 158 -22 15 -84 54 -136 85 -52 31 -115 71
-140 89 -25 18 -85 62 -135 97 -49 36 -119 90 -155 121 -36 31 -87 72 -115 90
-62 42 -219 166 -303 239 -35 30 -130 109 -211 175 -82 67 -195 163 -252 214
-57 52 -135 121 -173 155 -67 60 -249 231 -331 313 -37 37 -144 121 -295 231
-35 27 -85 67 -109 90 l-44 42 6 157 c3 85 8 158 11 162 4 3 30 -17 59 -44 28
-28 88 -80 132 -117 44 -36 121 -107 170 -157 50 -51 124 -118 166 -150 42
-32 125 -105 186 -163 61 -57 146 -128 189 -158 144 -100 370 -286 510 -421
143 -137 204 -188 334 -275 41 -28 107 -79 145 -114 39 -36 84 -75 102 -89 17
-14 98 -81 180 -150 326 -275 349 -292 448 -331 71 -29 90 -32 175 -32 134 1
262 48 350 128 32 29 271 153 475 246 88 40 207 97 265 127 168 88 562 303
594 325 43 30 449 238 531 272 101 42 202 97 329 179 153 99 258 161 416 246
74 40 209 118 300 174 212 131 372 215 590 311 96 43 257 117 358 165 169 82
183 91 188 119 4 17 10 31 13 31 4 0 34 16 67 36 32 20 97 56 144 81 47 25
123 71 170 101 47 30 146 87 221 127 74 40 176 99 225 132 106 72 185 118 359
208 72 37 189 104 260 147 134 82 366 216 515 297 47 26 112 65 145 87 33 22
87 55 121 73 34 18 79 50 100 72 l39 40 7 -38 c4 -21 7 -64 7 -97z m-5504 106
c6 -4 34 -33 64 -64 l53 -57 -50 -25 c-27 -14 -56 -31 -63 -39 -8 -7 -26 -21
-41 -31 -27 -18 -28 -17 -55 5 -16 13 -41 38 -56 56 l-28 32 59 40 c54 36 78
63 74 84 -2 9 30 9 43 -1z m2221 -32 c24 -17 44 -34 44 -38 0 -8 -51 -41 -82
-54 -17 -7 -118 46 -118 62 0 5 96 58 108 60 2 0 23 -14 48 -30z m509 10 c-3
-5 -16 -10 -28 -10 -18 0 -19 2 -7 10 20 13 43 13 35 0z m-1057 -47 c7 -25 9
-50 5 -54 -7 -6 -139 -59 -148 -59 -2 0 -5 15 -7 34 -3 28 0 37 17 44 11 5 40
26 63 46 24 20 47 36 51 36 4 0 12 -21 19 -47z m2559 26 c15 -6 40 -11 55 -11
35 1 36 -1 44 -79 4 -35 12 -83 19 -106 l13 -42 -127 -70 c-170 -93 -252 -133
-258 -127 -8 7 -22 85 -23 119 0 18 10 37 28 54 39 37 196 113 222 108 14 -3
31 5 47 21 39 39 20 85 -53 131 -24 15 -4 16 33 2z m-220 -30 l45 -32 -63 -33
c-35 -19 -80 -51 -99 -72 l-35 -39 -52 29 c-50 28 -52 31 -38 51 8 12 27 30
42 40 66 43 139 85 146 86 5 1 29 -13 54 -30z m-2949 -41 c41 -31 46 -48 14
-48 -9 0 -33 -10 -52 -21 l-34 -21 -43 23 c-24 13 -43 26 -42 29 1 12 83 70
98 70 10 0 36 -14 59 -32z m-490 -3 c1 -20 -3 -25 -23 -25 -13 0 -26 -4 -30
-9 -9 -15 -66 -41 -76 -35 -22 13 -4 35 53 63 33 17 64 31 67 31 4 0 8 -11 9
-25z m-265 -58 c3 -24 9 -50 12 -59 4 -11 -1 -20 -14 -27 -18 -10 -21 -7 -32
47 -7 31 -11 62 -9 67 1 6 2 18 2 29 -2 38 35 -13 41 -57z m3124 13 c10 -27
10 -29 -7 -20 -31 16 -60 11 -86 -15 -13 -13 -33 -29 -44 -35 -17 -9 -20 -8
-20 10 0 11 6 20 13 20 6 0 37 16 67 35 30 19 57 35 60 35 3 0 11 -13 17 -30z
m-575 -41 l81 -41 -39 -17 c-21 -10 -45 -25 -53 -34 -16 -21 -35 -22 -50 -3
-6 8 -41 28 -78 45 l-66 32 20 21 c17 16 56 32 96 37 4 1 44 -17 89 -40z
m-490 1 c4 -26 1 -30 -26 -36 -17 -3 -50 -17 -74 -30 -23 -14 -47 -22 -52 -19
-21 13 -8 33 38 54 26 12 58 31 72 41 33 26 37 25 42 -10z m-3394 -20 l23 -34
-43 -21 c-24 -11 -61 -33 -83 -48 -48 -33 -70 -36 -55 -8 5 11 10 32 10 48 0
22 8 33 35 47 19 10 42 27 52 38 21 24 33 20 61 -22z m3107 -51 c1 -24 5 -54
10 -66 4 -14 3 -23 -3 -23 -6 0 -13 19 -17 43 -9 53 -30 93 -55 107 -11 6 -20
16 -20 21 0 6 19 0 41 -13 38 -23 42 -29 44 -69z m-1365 61 c0 -5 -5 -10 -11
-10 -5 0 -7 5 -4 10 3 6 8 10 11 10 2 0 4 -4 4 -10z m-2480 -13 c0 -8 34 -50
75 -94 72 -78 74 -81 45 -79 -21 1 -37 12 -57 38 -15 20 -49 53 -75 73 -27 20
-48 39 -48 42 0 9 34 32 48 33 6 0 12 -6 12 -13z m366 -49 c21 -20 30 -36 27
-51 -2 -12 2 -43 10 -69 21 -67 1 -68 -62 -4 -53 54 -59 73 -45 145 7 35 10
34 70 -21z m1022 -88 c1 -3 -30 -25 -70 -48 -40 -24 -81 -48 -90 -55 -16 -10
-26 -3 -79 50 l-62 61 39 25 c21 13 59 41 84 60 l44 36 66 -62 c36 -34 66 -64
68 -67z m155 85 c22 -19 44 -35 48 -35 27 0 54 -169 31 -192 -17 -17 -27 -2
-40 60 -16 70 -44 132 -76 161 -14 13 -23 28 -20 32 8 14 13 11 57 -26z m3376
-10 l0 -20 -9 20 c-5 11 -9 27 -9 35 -1 13 0 13 9 0 5 -8 9 -24 9 -35z m-1341
16 c24 -9 44 -21 44 -26 0 -5 -18 -22 -40 -38 -40 -29 -42 -30 -89 -17 -26 7
-68 23 -92 35 l-43 21 53 22 c66 25 110 26 167 3z m-3743 -48 l66 -56 -28 -19
c-15 -10 -63 -32 -106 -48 l-77 -30 -55 41 c-30 23 -55 44 -55 48 0 3 23 19
50 36 28 16 62 42 77 57 15 16 35 28 44 28 10 0 47 -25 84 -57z m2824 23 l45
-23 18 -93 c17 -92 17 -94 -2 -107 -11 -8 -20 -22 -20 -31 0 -15 -2 -15 -10
-2 -5 8 -10 45 -10 83 0 54 -4 71 -20 87 -11 11 -20 24 -20 29 0 5 -12 18 -27
29 -17 13 -24 25 -20 36 8 21 13 20 66 -8z m291 10 c0 -8 3 -21 6 -29 4 -11
-10 -27 -43 -51 -26 -20 -51 -36 -54 -36 -12 0 -18 44 -9 55 5 6 11 22 13 36
3 15 13 26 28 30 40 11 59 10 59 -5z m2527 -30 c4 -3 -14 1 -40 11 -26 9 -47
21 -47 25 0 7 74 -23 87 -36z m-3548 -33 c1 -31 -11 -44 -24 -24 -3 5 -19 12
-35 16 l-31 7 28 21 c16 12 32 28 37 36 8 13 10 12 17 -4 4 -11 8 -35 8 -52z
m447 15 c35 -23 64 -46 64 -50 0 -4 -15 -15 -32 -24 -18 -8 -42 -26 -53 -39
l-20 -24 -88 57 -87 56 37 15 c21 8 52 23 68 33 17 10 34 18 38 18 5 0 38 -19
73 -42z m-1468 -27 l-1 -40 -28 22 -27 22 22 17 c31 26 36 22 34 -21z m4341 0
l80 -39 -94 -45 c-52 -25 -144 -78 -204 -116 -60 -39 -114 -71 -119 -71 -5 0
-59 -31 -120 -70 -61 -38 -152 -90 -202 -115 -51 -25 -122 -63 -158 -84 -37
-21 -146 -80 -242 -131 -373 -197 -428 -228 -505 -280 -44 -30 -125 -75 -180
-99 -55 -24 -194 -92 -310 -151 -115 -58 -238 -114 -272 -124 -61 -18 -61 -18
-84 3 -12 11 -31 23 -41 27 -10 3 -18 8 -18 12 0 4 35 29 78 57 42 27 163 106
269 175 106 69 227 146 270 171 43 25 119 71 168 101 122 75 534 288 1030 534
226 112 444 221 485 243 41 22 78 40 82 40 3 1 43 -16 87 -38z m333 -73 c3
-37 9 -82 13 -100 7 -32 6 -31 -24 14 -49 76 -62 108 -56 129 4 12 0 31 -10
46 l-17 26 43 -24 c44 -24 44 -25 51 -91z m-3770 62 c-12 -12 -22 -26 -22 -33
0 -16 -20 14 -20 30 0 10 15 16 54 22 6 0 0 -8 -12 -19z m2620 1 c53 -23 64
-35 76 -88 8 -34 7 -43 -5 -47 -23 -9 -33 2 -33 40 0 29 -6 39 -45 66 -25 18
-45 35 -45 40 0 11 2 11 52 -11z m353 9 c-3 -6 -21 -17 -38 -26 -36 -19 -31
-9 10 17 34 21 36 22 28 9z m-607 -42 c34 -18 62 -35 62 -38 0 -4 -26 -19 -58
-34 l-59 -28 -68 35 -69 34 59 31 c33 17 62 31 65 32 3 0 33 -14 68 -32z
m-838 -26 c36 -18 71 -32 78 -32 7 0 12 -13 12 -29 0 -16 5 -42 10 -56 9 -23
7 -30 -12 -46 -31 -25 -35 -24 -42 15 -4 19 -15 45 -26 59 -11 14 -20 30 -20
36 0 15 -46 58 -70 66 -11 4 -18 11 -14 16 3 6 9 9 12 7 4 -2 36 -18 72 -36z
m373 -8 c6 -29 4 -30 -24 -26 -22 3 -38 -2 -57 -19 -15 -13 -5 0 22 28 28 29
51 52 51 50 1 -1 5 -16 8 -33z m-636 -31 c12 -3 31 -15 42 -27 l21 -23 -52
-32 -52 -33 -48 23 c-76 35 -77 43 -16 78 29 17 60 28 68 25 8 -4 25 -9 37
-11z m-3729 -62 c31 -21 72 -47 90 -58 l32 -19 -96 -42 -96 -42 -79 56 c-72
50 -89 74 -55 74 6 0 36 16 66 35 30 19 61 35 68 35 7 0 39 -17 70 -39z m616
9 c3 -16 9 -44 12 -61 4 -19 2 -29 -3 -26 -6 4 -27 -3 -49 -15 -60 -33 -256
-108 -266 -102 -13 8 -9 30 7 44 8 7 15 25 15 40 0 24 5 29 34 34 32 6 200 88
221 107 16 15 23 10 29 -21z m1487 -19 c5 -40 3 -45 -25 -62 -17 -10 -44 -21
-61 -25 -16 -3 -49 -17 -71 -30 l-42 -25 -6 37 c-4 20 -6 37 -4 38 2 1 28 18
58 38 85 55 124 76 135 74 6 -2 13 -22 16 -45z m-351 -26 c0 -21 -2 -20 -34 9
-25 23 -31 34 -23 44 14 17 57 -23 57 -53z m1410 55 c0 -23 -24 -57 -61 -85
-22 -16 -43 -30 -46 -30 -3 0 -6 18 -7 40 -2 40 -1 41 48 62 61 25 66 26 66
13z m2910 -8 c0 -4 16 -32 35 -62 19 -30 35 -60 35 -67 0 -7 -39 -35 -87 -64
-49 -28 -99 -59 -113 -69 -14 -10 -95 -52 -180 -95 -85 -43 -178 -93 -207
-111 -28 -18 -130 -71 -225 -117 -95 -46 -213 -108 -263 -138 -49 -30 -153
-86 -230 -124 -77 -37 -180 -92 -230 -120 -88 -51 -298 -165 -460 -250 -44
-23 -126 -69 -181 -103 -56 -33 -158 -91 -227 -127 l-125 -66 -12 73 c-6 40
-14 80 -16 90 -4 12 14 26 68 53 40 21 102 54 138 75 85 49 257 135 400 200
63 28 162 82 220 120 58 37 148 89 200 115 51 26 121 64 155 85 33 20 110 63
170 95 61 32 164 88 230 125 66 37 154 84 195 104 41 21 99 55 130 76 30 20
84 52 120 70 36 18 97 54 136 81 82 55 281 158 307 159 9 0 17 -4 17 -8z
m-4556 -44 l38 -31 -28 -15 c-41 -20 -84 -62 -98 -94 l-12 -27 -67 52 -68 52
93 46 c51 25 95 47 98 47 3 1 23 -12 44 -30z m1095 -4 c61 -41 61 -41 -36 -75
-76 -26 -87 -24 -131 15 l-37 34 65 31 c36 17 70 31 75 31 6 0 35 -16 64 -36z
m265 -35 c4 -22 19 -53 37 -73 l30 -35 -19 -36 c-24 -47 -35 -34 -50 58 -9 56
-17 75 -46 108 -20 21 -36 41 -36 43 0 3 18 -2 39 -11 34 -13 40 -20 45 -54z
m1836 -56 c0 -23 3 -48 6 -57 3 -9 2 -16 -4 -16 -5 0 -13 17 -17 37 -5 26 -21
50 -58 85 -28 26 -55 48 -59 48 -4 0 -8 4 -8 9 0 4 31 -8 70 -28 69 -36 70
-36 70 -78z m283 95 c4 -12 5 -23 4 -24 -6 -6 -157 -72 -157 -69 0 14 25 55
34 56 6 0 31 13 56 29 55 35 56 35 63 8z m-3955 -2 c43 -1 51 -4 45 -16 -3 -8
-8 -32 -11 -52 l-4 -38 -45 40 c-53 46 -80 50 -120 16 -36 -30 -71 -47 -157
-77 -46 -16 -80 -36 -107 -62 -21 -21 -38 -42 -37 -45 1 -4 -4 -24 -11 -44
l-12 -37 -30 18 c-29 18 -74 18 -85 0 -3 -5 -14 -9 -24 -9 -28 0 -292 -136
-312 -161 -10 -12 -18 -29 -18 -39 0 -10 -7 -23 -15 -30 -8 -7 -15 -21 -15
-31 0 -18 -2 -18 -50 1 -67 26 -106 25 -192 -5 -84 -29 -102 -27 -26 4 67 27
130 59 243 127 50 29 124 67 165 85 41 17 93 42 115 55 22 12 82 39 134 59
116 44 189 83 202 107 6 11 18 18 27 16 19 -3 216 98 234 119 7 9 19 12 32 7
12 -4 45 -8 74 -8z m3401 -93 l43 -19 -58 -39 c-33 -21 -66 -38 -74 -38 -23 2
-150 54 -150 62 0 3 31 25 68 47 l67 42 30 -19 c17 -10 50 -26 74 -36z m-2239
17 c0 -5 -5 -10 -11 -10 -5 0 -7 5 -4 10 3 6 8 10 11 10 2 0 4 -4 4 -10z
m1689 -47 c1 -7 -8 -13 -18 -13 -34 0 -53 -12 -66 -42 l-12 -30 -21 33 -21 33
52 29 c29 15 56 32 62 38 9 9 21 -14 24 -48z m-379 37 c12 -8 11 -10 -7 -10
-13 0 -23 5 -23 10 0 13 11 13 30 0z m-195 -76 c33 -22 32 -28 -12 -54 -55
-32 -83 -34 -126 -7 l-38 23 53 42 c58 45 46 45 123 -4z m315 -12 c0 -13 12
-40 27 -59 21 -27 24 -38 14 -41 -7 -2 -22 -13 -32 -23 -11 -11 -21 -19 -23
-19 -2 0 -6 24 -9 53 -3 28 -14 73 -26 99 l-20 47 35 -16 c25 -12 34 -23 34
-41z m-4120 -32 l45 -38 -50 -22 c-27 -12 -65 -33 -84 -47 -33 -26 -34 -26
-67 -8 -18 9 -47 29 -64 44 l-31 26 77 57 c88 65 83 65 174 -12z m241 20 c35
-23 37 -28 41 -85 2 -37 12 -77 26 -103 26 -50 26 -52 10 -52 -19 0 -98 128
-98 157 0 13 -9 41 -20 62 -10 21 -16 41 -13 45 8 8 8 8 54 -24z m1881 -30
c-4 -44 -1 -53 26 -80 36 -35 33 -39 -8 -9 -29 22 -67 23 -137 3 -19 -5 -23
-2 -23 14 0 12 10 27 23 33 12 7 42 29 66 51 24 21 47 38 50 38 3 0 4 -22 3
-50z m748 34 c24 -15 28 -24 32 -78 3 -34 15 -80 27 -103 17 -35 30 -123 18
-123 -2 0 -18 7 -35 16 -31 15 -43 46 -22 59 16 10 11 70 -8 96 -25 33 -50 99
-49 127 2 26 2 26 37 6z m340 9 c-1 -8 -132 -93 -144 -93 -3 0 -6 10 -6 23 0
19 11 28 63 49 67 27 87 32 87 21z m-1417 -72 c31 -24 57 -47 58 -52 4 -47 0
-92 -8 -100 -6 -6 -28 -14 -49 -19 -43 -10 -53 -2 -54 40 0 34 -23 98 -42 116
-12 13 -13 23 -5 49 9 29 12 32 26 22 9 -7 42 -32 74 -56z m-1131 44 c0 -8 1
-19 2 -24 1 -8 -155 -93 -160 -88 -1 1 1 20 5 42 6 37 10 42 61 62 65 26 89
29 92 8z m840 -59 c27 -23 48 -43 48 -46 0 -3 -16 -14 -34 -24 -19 -10 -45
-29 -57 -42 -12 -13 -26 -24 -31 -24 -8 0 -131 109 -136 121 -2 4 19 14 45 23
26 9 59 23 73 30 28 16 29 16 92 -38z m1132 6 c26 -28 27 -31 9 -40 -10 -6
-36 -13 -58 -17 -22 -4 -47 -11 -55 -15 -10 -5 -31 2 -59 18 l-44 26 23 15
c43 29 125 58 140 50 8 -4 28 -21 44 -37z m2436 34 c0 -8 -37 -33 -82 -55 -93
-47 -92 -42 2 23 70 50 80 53 80 32z m-383 -50 c40 -15 52 -25 56 -45 7 -36 2
-37 -25 -6 -13 15 -40 34 -60 42 -21 8 -38 20 -38 25 0 5 4 8 8 6 4 -1 31 -12
59 -22z m-779 -106 c-13 -11 -43 -27 -67 -37 -42 -16 -44 -16 -57 2 -22 30
-17 40 35 64 27 13 61 34 77 46 l29 23 3 -39 c3 -32 -2 -44 -20 -59z m-341 60
c25 -15 43 -32 43 -43 0 -23 -22 -11 -70 39 -39 40 -35 41 27 4z m900 -11 l68
-31 -37 -19 -36 -19 -66 35 -67 35 33 14 c18 8 34 15 35 15 0 1 32 -13 70 -30z
m-1120 -25 c29 -20 51 -40 48 -44 -3 -5 -22 -14 -43 -21 -20 -6 -52 -22 -71
-35 -37 -25 -43 -24 -99 23 l-32 28 62 43 c34 23 67 42 72 42 6 0 34 -16 63
-36z m-3199 -65 c18 -28 31 -57 28 -65 -3 -8 -32 -26 -63 -40 -32 -14 -76 -33
-98 -43 l-41 -19 1 59 c1 32 3 60 6 62 2 2 25 18 50 35 25 16 51 37 58 46 8 9
16 16 20 16 3 0 21 -23 39 -51z m3960 11 c-2 -5 -9 -6 -16 -1 -7 4 -10 15 -6
25 6 17 8 17 16 2 5 -9 8 -21 6 -26z m-4350 -9 c32 -21 64 -50 71 -64 25 -47
3 -187 -29 -187 -4 0 -15 24 -24 54 -10 30 -33 76 -52 103 -26 36 -34 58 -34
90 0 24 2 43 6 43 3 0 31 -17 62 -39z m1529 -34 c58 -46 61 -50 67 -103 7 -60
4 -69 -24 -84 -15 -8 -22 -4 -39 26 -12 19 -21 42 -21 50 0 8 -10 25 -22 38
-13 12 -35 41 -51 64 -22 34 -25 46 -17 62 12 23 7 26 107 -53z m1141 -2 c-6
-39 -88 4 -88 47 0 17 3 16 45 -4 35 -17 45 -27 43 -43z m-2944 -14 l68 -69
-48 -22 c-27 -12 -70 -31 -96 -42 l-48 -20 -60 52 c-33 29 -60 55 -60 58 0 7
160 111 170 112 3 0 36 -31 74 -69z m3244 -46 c-4 -4 -143 -45 -152 -45 -3 0
-6 8 -6 18 1 23 58 86 95 105 l30 15 18 -45 c10 -25 16 -47 15 -48z m-1648
-45 c0 -3 -34 -25 -76 -48 l-75 -43 -27 20 c-36 26 -117 109 -111 115 2 2 40
23 83 46 l79 41 64 -63 c34 -34 63 -65 63 -68z m2575 101 c15 -30 7 -49 -15
-36 -10 6 -15 65 -5 65 2 0 11 -13 20 -29z m-2027 -6 c16 -34 16 -68 0 -59
-13 8 -101 7 -133 -2 -21 -6 40 50 79 73 31 18 42 16 54 -12z m2947 -45 c-89
-58 -125 -75 -93 -44 18 19 158 102 173 103 6 0 -30 -26 -80 -59z m-2434 33
c16 -10 29 -20 29 -24 0 -4 -26 -16 -58 -28 -57 -22 -60 -22 -95 -5 l-37 17
33 20 c29 18 69 34 90 36 5 1 22 -7 38 -16z m1363 -104 c6 -35 6 -36 -25 -31
-22 3 -37 -2 -57 -20 -15 -13 -43 -31 -63 -40 l-35 -16 -11 39 c-10 38 -9 40
19 55 16 8 57 33 91 55 69 45 64 48 81 -42z m532 28 c24 -11 44 -24 44 -27 0
-7 -92 -63 -132 -81 -23 -10 -33 -7 -87 22 -34 19 -61 36 -61 39 0 5 24 21 95
63 35 21 75 16 141 -16z m305 23 c5 0 9 -19 8 -42 l-1 -43 -9 33 c-6 18 -16
35 -24 39 -8 3 -15 10 -15 15 0 6 7 7 16 4 9 -3 20 -6 25 -6z m-1160 -117 c3
-21 11 -51 18 -68 11 -26 10 -31 -11 -47 l-23 -17 -17 52 c-9 29 -17 62 -17
75 -1 13 -14 37 -31 53 -17 17 -27 36 -23 44 4 12 15 8 52 -19 37 -28 47 -42
52 -73z m-1224 -17 c5 -71 3 -121 -8 -151 -15 -41 0 -84 31 -92 18 -5 40 -66
28 -79 -11 -11 -68 32 -68 51 0 55 -41 150 -80 190 l-42 42 13 55 13 55 56
-25 c41 -18 56 -31 57 -46z m997 4 c19 -1 -118 -69 -139 -69 -11 -1 -39 12
-63 28 l-43 28 33 20 c18 11 49 26 68 33 19 7 39 17 44 21 5 4 27 -8 49 -27
22 -18 45 -34 51 -34z m-684 17 c0 -42 -1 -44 -41 -57 -23 -8 -63 -31 -90 -53
l-49 -39 0 60 0 59 83 36 c45 19 85 36 90 36 4 1 7 -19 7 -42z m-2626 -13 c18
-7 42 -73 30 -84 -15 -13 -234 -123 -238 -119 -3 2 0 27 5 54 5 28 11 58 13
68 2 13 28 30 77 52 79 36 89 38 113 29z m2863 -34 c11 0 11 -4 3 -20 -8 -15
-15 -18 -28 -11 -40 22 -53 37 -47 54 7 16 9 15 32 -3 14 -11 32 -20 40 -20z
m1717 -5 c6 -29 2 -32 -92 -92 -93 -59 -97 -61 -104 -40 -14 50 -9 63 35 84
23 12 65 37 92 56 28 18 53 31 56 28 4 -3 10 -19 13 -36z m-4951 -48 c24 -22
25 -27 16 -61 l-10 -37 -27 17 c-82 52 -88 59 -84 107 l4 46 38 -24 c21 -13
49 -35 63 -48z m1532 24 c28 -19 51 -35 52 -36 1 -1 5 -19 8 -41 4 -21 8 -46
11 -55 2 -9 -2 -19 -10 -22 -10 -4 -15 5 -20 33 -4 28 -23 59 -63 107 -60 70
-59 71 22 14z m376 4 c11 -24 26 -50 33 -58 9 -9 11 -19 5 -28 -7 -11 -14 -7
-38 19 -36 39 -54 40 -115 6 l-46 -26 0 29 c0 24 9 33 68 65 37 20 68 37 70
37 2 1 12 -19 23 -44z m-671 5 l55 -29 -45 -18 c-25 -9 -162 -76 -305 -148
-360 -181 -319 -169 -385 -116 -30 24 -59 47 -63 51 -5 4 78 51 185 104 197
98 419 185 473 185 17 0 55 -13 85 -29z m1126 4 c19 -15 34 -29 34 -33 0 -4
-27 -20 -60 -35 l-60 -29 -40 18 c-22 10 -40 21 -40 25 0 10 71 64 88 66 8 2
16 5 20 8 10 11 23 6 58 -20z m-2739 -7 c17 -27 107 -97 124 -97 11 0 19 -7
19 -17 0 -21 29 -53 48 -53 9 0 61 -29 116 -64 134 -85 159 -89 266 -42 44 20
85 36 90 36 6 0 10 -13 10 -29 0 -23 -13 -43 -55 -84 -92 -91 -78 -118 132
-252 146 -93 205 -141 230 -190 9 -16 35 -52 59 -80 24 -27 68 -79 97 -115 65
-80 370 -348 565 -497 56 -43 165 -145 192 -179 9 -11 1 -8 -20 8 -19 15 -69
52 -110 81 -80 58 -290 231 -411 340 -77 68 -203 168 -397 313 -62 47 -154
124 -205 171 -51 47 -128 113 -172 146 -44 34 -138 118 -210 188 -71 70 -157
149 -190 177 -33 27 -97 86 -143 130 -73 72 -82 84 -72 102 12 23 25 26 37 7z
m4881 -37 c9 -6 38 -19 64 -29 42 -18 48 -24 53 -58 4 -21 9 -50 11 -64 4 -20
-1 -30 -20 -43 -31 -20 -46 -20 -46 -1 0 34 -44 128 -76 161 -19 20 -34 38
-34 40 0 8 31 4 48 -6z m-225 -52 l71 -41 -24 -16 c-13 -9 -47 -26 -76 -38
l-52 -22 -58 23 c-33 12 -72 30 -89 38 l-29 16 84 40 c47 23 89 41 93 42 5 0
41 -19 80 -42z m-1115 -41 c35 -22 62 -43 60 -48 -2 -5 -39 -31 -83 -59 l-80
-49 -65 64 -65 65 25 17 c56 41 96 59 120 54 14 -2 53 -22 88 -44z m260 22
c32 -24 42 -37 42 -59 0 -16 4 -40 10 -54 8 -22 6 -27 -13 -37 -12 -6 -30 -21
-39 -33 -17 -21 -18 -21 -18 16 0 20 -4 47 -10 60 -13 30 -29 138 -20 138 3 0
25 -14 48 -31z m312 17 c0 -8 3 -21 6 -30 4 -11 1 -16 -10 -16 -8 0 -40 -12
-70 -27 -31 -15 -58 -25 -60 -22 -12 12 8 49 33 58 14 5 40 19 56 30 37 24 45
25 45 7z m-2312 -72 c7 -21 21 -48 31 -59 32 -35 34 -99 5 -133 -1 -2 -32 11
-68 28 -63 31 -68 32 -122 21 -75 -15 -282 -123 -419 -219 -101 -71 -124 -95
-140 -146 -5 -17 -7 -16 -24 5 -13 16 -16 29 -11 40 5 8 7 49 4 90 l-5 74 288
143 c290 144 420 202 438 198 6 -1 16 -20 23 -42z m1065 -3 c4 -16 -8 -28 -62
-60 -36 -21 -75 -48 -87 -59 l-20 -19 0 46 0 46 75 37 c41 20 78 35 82 33 3
-3 9 -14 12 -24z m-591 -78 l38 -37 -68 -37 c-37 -21 -72 -38 -78 -39 -6 0
-36 20 -67 44 l-57 44 37 13 c21 7 52 20 68 29 50 28 85 24 127 -17z m229 20
c36 -17 38 -20 32 -54 -6 -44 19 -136 47 -172 30 -38 25 -47 -18 -29 -29 12
-38 21 -34 34 2 10 -2 39 -11 65 -8 27 -18 61 -21 77 -4 17 -16 42 -27 57 -31
45 -26 48 32 22z m2289 -65 c0 -12 -9 -32 -21 -44 -11 -12 -23 -40 -26 -63 -3
-23 -9 -41 -13 -41 -9 0 -62 40 -72 55 -21 29 -7 51 54 83 73 38 78 39 78 10z
m-604 -27 c46 -22 84 -45 84 -51 0 -35 -118 -98 -163 -87 -28 8 -147 83 -147
94 0 6 122 78 139 82 1 1 41 -17 87 -38z m-828 -137 c-2 -34 -6 -60 -10 -57
-5 2 -8 10 -8 18 0 7 -11 27 -25 43 -14 17 -25 34 -25 39 0 6 -9 18 -20 28
-14 12 -20 31 -20 59 l0 40 55 -54 56 -55 -3 -61z m1162 70 c12 -36 21 -66 19
-68 -2 -2 -16 -6 -31 -10 -28 -6 -28 -6 -28 41 -1 27 -7 64 -14 85 -13 36 -13
36 9 26 15 -6 30 -31 45 -74z m-870 41 c0 -23 -2 -25 -22 -14 -21 11 -21 12
-3 25 25 18 25 18 25 -11z m-695 -6 c38 -10 165 -87 165 -100 0 -9 -47 -29
-114 -50 l-59 -18 -58 41 c-50 36 -80 72 -67 82 16 13 84 56 88 56 3 0 23 -5
45 -11z m-2095 -76 c46 -26 50 -31 50 -65 0 -20 3 -44 6 -53 5 -11 -11 -5 -52
19 -57 33 -59 36 -62 80 -2 25 -1 46 2 46 3 0 28 -12 56 -27z m1220 -114 c0
-11 -2 -19 -4 -19 -1 0 -17 22 -33 49 -22 35 -39 51 -60 55 -26 6 -29 11 -25
34 5 26 6 25 64 -37 32 -35 58 -72 58 -82z m-332 75 c30 -20 51 -38 48 -41 -3
-3 -40 -20 -82 -39 -80 -34 -126 -70 -149 -115 -9 -16 -29 -30 -56 -38 -24 -7
-69 -31 -101 -52 -34 -24 -63 -37 -71 -33 -6 4 -35 28 -63 53 l-51 44 76 52
c113 77 352 205 381 205 8 0 39 -16 68 -36z m640 5 c3 -22 -7 -30 -76 -67 -44
-23 -84 -42 -91 -42 -6 0 -11 12 -11 28 0 23 10 32 78 69 42 23 82 40 87 39 6
-1 11 -14 13 -27z m2638 -92 c-7 -35 27 -215 48 -255 21 -41 8 -48 -18 -9 -67
100 -116 191 -116 217 0 20 -8 35 -24 46 -14 8 -23 21 -21 27 2 7 6 24 9 39
l6 27 61 -32 c55 -29 59 -34 55 -60z m-1021 5 l70 -37 3 -71 3 -72 -35 17
c-20 9 -36 23 -36 31 0 24 -47 117 -62 126 -16 10 -32 44 -20 44 4 0 39 -17
77 -38z m-1078 -90 c40 3 53 -8 21 -17 -13 -5 -54 -23 -92 -41 -74 -36 -86
-40 -86 -24 0 6 -11 33 -24 60 -15 31 -20 52 -14 56 6 4 8 24 5 44 l-5 38 81
-59 c64 -47 88 -59 114 -57z m768 68 c22 -15 46 -29 54 -32 15 -4 -78 -66
-139 -92 -32 -13 -35 -12 -86 27 -29 23 -50 45 -48 49 3 5 20 15 37 24 18 9
41 24 52 34 21 19 62 30 80 21 6 -2 28 -16 50 -31z m590 0 c-10 -11 -27 -22
-39 -26 -11 -4 -24 -12 -28 -18 -4 -6 -8 0 -8 15 0 20 9 29 43 46 45 22 60 14
32 -17z m-1051 -6 c4 -14 19 -37 33 -50 l26 -24 -29 1 c-33 0 -115 31 -115 43
0 8 61 55 72 56 4 0 10 -12 13 -26z m1536 -69 c0 -6 -49 -33 -108 -61 l-108
-51 -65 35 c-35 18 -65 35 -67 37 -2 2 39 23 90 47 153 72 136 69 200 34 32
-17 58 -36 58 -41z m-2230 24 c0 -8 -56 -46 -200 -136 -52 -33 -156 -98 -230
-145 -74 -46 -169 -104 -210 -128 -41 -24 -91 -61 -110 -82 l-35 -39 -64 65
c-75 75 -88 59 123 148 77 32 197 93 266 136 69 42 186 109 260 148 134 70
135 71 168 56 17 -9 32 -19 32 -23z m-612 -48 c18 -27 32 -51 32 -55 0 -7
-104 -60 -173 -87 -28 -11 -90 -38 -137 -59 -47 -21 -96 -41 -110 -44 -41 -8
-70 -74 -70 -153 0 -66 0 -66 -20 -48 -16 14 -19 26 -14 52 3 18 7 67 8 108 1
74 1 75 36 98 19 13 60 32 89 42 35 11 72 34 101 61 43 40 191 132 216 133 6
1 25 -21 42 -48z m1964 -76 l15 -35 -96 -64 c-53 -35 -97 -63 -99 -61 -2 2 -6
22 -8 44 -4 36 -2 42 18 50 13 5 50 30 83 54 33 25 62 46 65 46 3 1 13 -15 22
-34z m-737 -25 c50 -22 96 -40 103 -40 38 0 -53 -61 -248 -164 -80 -43 -181
-100 -225 -128 -44 -28 -152 -88 -240 -135 -174 -92 -233 -127 -311 -185 -28
-21 -54 -38 -58 -38 -10 0 -156 111 -156 119 0 3 37 26 82 50 45 24 121 69
168 99 47 31 139 84 205 119 66 36 167 97 225 136 57 40 163 102 235 138 71
37 130 67 130 68 1 0 41 -17 90 -39z m-524 -17 l20 -32 -58 -39 c-33 -22 -119
-72 -192 -111 -74 -39 -179 -100 -235 -135 -55 -35 -131 -77 -168 -95 -93 -44
-128 -75 -128 -114 0 -33 -20 -97 -30 -97 -6 0 -30 122 -25 128 3 3 30 9 48
11 4 1 42 36 86 79 48 47 110 96 162 126 103 60 273 170 394 253 49 35 94 62
98 60 4 -1 17 -17 28 -34z m2256 -43 l41 -69 -61 -29 c-34 -16 -111 -57 -171
-90 -61 -34 -111 -60 -113 -59 -1 2 -5 43 -9 93 l-6 89 134 67 c73 37 135 67
138 67 3 0 24 -31 47 -69z m-450 -114 c2 -39 5 -87 9 -106 5 -34 4 -34 -30 20
-20 30 -36 62 -36 71 0 9 -9 24 -20 34 -11 10 -20 24 -20 31 0 19 -52 56 -72
51 -26 -7 -22 8 9 31 l27 19 65 -40 66 -41 2 -70z m-903 108 c44 -25 46 -28
46 -71 0 -24 4 -52 9 -61 6 -11 4 -31 -5 -57 -7 -22 -14 -48 -14 -57 0 -25
-11 -22 -46 10 -22 19 -37 48 -54 103 -21 72 -22 78 -6 100 9 13 16 31 16 41
0 23 -1 23 54 -8z m-2254 -84 c6 -10 10 -27 10 -37 -1 -13 -12 -6 -40 27 -48
55 -54 81 -10 50 17 -12 35 -30 40 -40z m2772 -2 c32 -13 58 -26 58 -30 0 -6
-108 -61 -173 -87 -19 -7 -29 -20 -33 -41 l-7 -30 -56 32 c-91 51 -91 45 12
104 52 30 100 61 107 69 7 9 18 14 24 11 6 -3 37 -15 68 -28z m-739 -65 c3 -5
8 -22 11 -39 6 -28 4 -31 -41 -52 -43 -19 -297 -165 -366 -209 -35 -23 -61
-77 -53 -114 l6 -29 -30 22 -29 21 -68 -28 c-72 -30 -365 -192 -402 -222 -12
-10 -23 -30 -25 -46 -6 -60 -16 -36 -16 41 0 80 0 81 33 103 17 12 57 44 88
70 76 64 117 88 459 260 162 81 322 166 355 188 64 42 71 45 78 34z m969 -90
c31 -51 63 -124 56 -127 -43 -16 -183 -91 -245 -131 -95 -62 -89 -68 -99 86
l-7 96 59 22 c43 17 174 88 200 110 1 1 17 -25 36 -56z m-479 -126 l67 -39 0
-46 c0 -26 3 -65 6 -87 l6 -40 -31 35 c-17 19 -37 49 -46 66 -8 17 -31 43 -50
58 -28 22 -35 34 -35 62 0 20 3 34 8 32 4 -1 37 -20 75 -41z m-265 -66 l84
-65 -34 -15 c-18 -7 -88 -40 -155 -73 l-122 -59 -43 14 c-24 8 -62 20 -85 26
-23 6 -58 18 -79 27 l-37 16 64 36 c35 19 103 66 152 103 83 64 89 67 129 61
32 -4 62 -21 126 -71z m-1859 -20 c-7 -19 -79 48 -79 72 0 19 5 17 41 -20 23
-22 40 -46 38 -52z m2067 -168 c41 -55 37 -67 -30 -106 -33 -19 -80 -44 -102
-56 -23 -11 -50 -31 -60 -45 -11 -13 -56 -40 -100 -59 l-81 -34 -12 69 c-7 45
-8 74 -2 82 17 20 325 169 362 175 3 1 14 -11 25 -26z m-883 -140 l27 -29 -87
-42 c-49 -23 -114 -47 -145 -53 -32 -7 -63 -18 -69 -25 -9 -11 -20 -9 -60 11
-27 14 -49 27 -49 29 0 5 207 125 265 154 39 19 41 19 65 2 14 -10 37 -31 53
-47z m-729 -4 c11 -9 19 -119 10 -119 -4 0 -28 18 -54 40 -44 37 -48 45 -52
89 l-3 49 45 -26 c25 -14 49 -29 54 -33z m1033 11 c2 0 1 -10 -1 -22 -2 -15 6
-33 22 -50 21 -23 26 -40 30 -101 4 -69 3 -74 -19 -84 -23 -10 -25 -7 -57 71
-18 45 -37 99 -43 121 -6 21 -18 44 -27 51 -8 6 -13 18 -9 27 6 15 11 15 54 2
26 -8 49 -15 50 -15z m-1066 -266 c40 -33 98 -78 127 -99 28 -22 52 -45 52
-53 0 -8 -5 -10 -12 -6 -27 16 -285 244 -323 285 -34 37 -30 35 21 -11 33 -30
94 -82 135 -116z m897 29 c18 -53 31 -97 30 -98 -6 -4 -286 -115 -325 -129
l-43 -15 0 36 c0 23 9 45 26 66 29 35 26 69 -8 96 -20 17 -19 18 43 35 35 10
102 37 149 61 47 24 88 44 91 44 3 1 20 -42 37 -96z m-476 -123 c-2 -36 -6
-67 -8 -69 -2 -2 -12 3 -23 13 -19 17 -47 128 -36 146 3 5 20 2 39 -8 l33 -17
-5 -65z m-1269 -12477 c6 -368 10 -426 53 -648 44 -230 64 -296 130 -437 35
-76 64 -140 64 -143 0 -3 21 -49 46 -103 39 -82 59 -109 125 -174 125 -122
204 -151 494 -177 273 -25 340 -33 500 -58 164 -26 188 -27 700 -33 292 -3
535 -8 541 -12 5 -4 120 -23 255 -43 255 -37 305 -48 352 -72 l28 -14 -100
-51 c-114 -56 -176 -115 -220 -208 -25 -53 -26 -63 -31 -293 -6 -275 1 -259
-113 -296 -92 -31 -98 -32 -257 -42 -80 -5 -163 -14 -185 -20 -22 -6 -62 -14
-90 -19 -91 -13 -175 -52 -235 -106 -51 -47 -153 -205 -175 -274 -10 -30 -20
-58 -22 -63 -2 -4 -25 10 -51 32 -77 64 -131 91 -597 295 -139 61 -196 89
-245 122 -19 13 -80 39 -133 58 -54 19 -104 39 -110 45 -7 5 -91 49 -187 98
-218 111 -382 210 -480 288 -41 33 -98 77 -126 97 -67 49 -121 121 -179 237
-47 93 -47 94 -43 180 3 71 10 99 37 161 23 50 35 95 39 140 3 45 15 86 38
135 28 59 35 92 48 205 18 158 42 1120 32 1248 -6 73 -40 233 -61 285 -6 15 1
17 73 17 l80 0 5 -357z m-6008 -1023 c17 -172 50 -321 94 -433 83 -207 241
-440 403 -592 35 -33 99 -100 142 -150 295 -336 343 -380 836 -770 158 -125
309 -276 431 -430 234 -295 391 -550 458 -739 37 -103 43 -226 15 -296 -15
-38 -18 -40 -59 -40 -61 0 -96 17 -236 118 -130 94 -223 145 -298 167 -91 26
-201 38 -316 33 -112 -5 -116 -6 -184 -46 -102 -62 -168 -134 -219 -245 -18
-37 -46 -96 -62 -131 -43 -91 -108 -155 -207 -205 -46 -23 -86 -41 -90 -41 -5
0 -9 71 -9 158 -2 149 -4 165 -42 315 -45 174 -95 291 -144 332 -43 36 -119
73 -175 85 -37 8 -59 7 -95 -3 -25 -8 -58 -12 -71 -10 -38 7 -85 -12 -209 -83
-62 -35 -117 -64 -124 -64 -7 0 -48 -26 -91 -58 -43 -32 -114 -82 -158 -112
-44 -29 -95 -67 -113 -84 -27 -26 -34 -28 -42 -16 -13 19 -13 94 0 158 14 75
93 256 138 315 48 65 51 71 101 248 53 187 86 348 106 513 57 488 55 459 64
696 6 125 5 275 -1 385 -8 148 -7 217 7 386 13 164 15 225 6 295 -6 49 -18
172 -26 274 -18 209 -32 266 -82 321 l-35 39 58 1 c33 0 91 10 129 22 l70 23
7 -91 c4 -49 15 -160 23 -245z"/>
<path d="M16305 23984 c-45 -23 -123 -104 -135 -139 -5 -16 -9 -43 -9 -60 0
-16 0 -58 -1 -91 -1 -77 44 -201 95 -261 47 -55 111 -80 164 -64 52 15 82 40
133 114 57 80 58 83 59 187 1 107 -18 156 -88 231 -47 51 -129 99 -168 99 -11
0 -33 -7 -50 -16z"/>
<path d="M24860 25819 c-30 -11 -156 -38 -280 -60 -770 -134 -941 -207 -1480
-630 -102 -80 -220 -171 -262 -202 -43 -32 -85 -71 -93 -87 -42 -81 14 -170
107 -170 42 0 109 32 413 197 635 345 938 473 1395 592 140 36 153 38 210 21
64 -18 221 -6 278 22 132 63 132 252 1 318 -55 28 -211 28 -289 -1z"/>
</g>
</svg>
